<svg width="32" height="33" viewBox="0 0 32 33" fill="none" xmlns="http://www.w3.org/2000/svg">
<g clip-path="url(#clip0_38_1149)">
<path fill-rule="evenodd" clip-rule="evenodd" d="M15.9489 0.59375C18.8335 0.626667 21.4394 1.33561 23.7667 2.72058C26.0662 4.0779 27.9791 6.00247 29.3224 8.31024C30.6989 10.6516 31.4036 13.2733 31.4364 16.1754C31.3547 20.1463 30.1022 23.5377 27.6791 26.3499C25.256 29.162 22.1526 30.9017 18.9399 31.5687V20.4357H21.9772L22.6641 16.0607H18.0649V13.1952C18.0394 12.6011 18.2272 12.0176 18.5945 11.55C18.9623 11.0811 19.61 10.8347 20.5376 10.8107H23.3149V6.97829C23.2751 6.96547 22.8969 6.91477 22.1805 6.82619C21.3681 6.73113 20.551 6.68036 19.733 6.67409C17.8817 6.68264 16.4175 7.20487 15.3405 8.24081C14.2634 9.27645 13.7133 10.7748 13.6899 12.7359V16.0607H10.1899V20.4357H13.6899V31.5687C9.74526 30.9017 6.64181 29.162 4.21869 26.3499C1.79556 23.5377 0.543188 20.1462 0.461426 16.1754C0.494138 13.2731 1.1988 10.6514 2.5754 8.31024C3.9187 6.00247 5.83158 4.07791 8.13113 2.72058C10.4584 1.33588 13.0643 0.626933 15.9489 0.59375Z" fill="white"/>
</g>
<defs>
<clipPath id="clip0_38_1149">
<rect width="32" height="32" fill="white" transform="translate(0 0.108398)"/>
</clipPath>
</defs>
</svg>
