<svg width="32" height="33" viewBox="0 0 32 33" fill="none" xmlns="http://www.w3.org/2000/svg">
<g clip-path="url(#clip0_38_1156)">
<path d="M16.3149 32.1083C16.209 32.1083 16.103 32.1083 15.9963 32.1078C13.488 32.1139 11.1704 32.0502 8.9165 31.913C6.8501 31.7873 4.96387 31.0731 3.46143 29.8481C2.01172 28.6659 1.02173 27.0675 0.519043 25.0978C0.081543 23.383 0.0583496 21.6996 0.0361328 20.0714C0.0200195 18.9032 0.00341797 17.519 0 16.1112C0.00341797 14.6977 0.0200195 13.3134 0.0361328 12.1452C0.0583496 10.5172 0.081543 8.83389 0.519043 7.11881C1.02173 5.14908 2.01172 3.55069 3.46143 2.36856C4.96387 1.14346 6.8501 0.429354 8.91675 0.303621C11.1707 0.166658 13.4888 0.102693 16.0024 0.108797C18.5115 0.103426 20.8284 0.166658 23.0823 0.303621C25.1487 0.429354 27.0349 1.14346 28.5373 2.36856C29.9873 3.55069 30.977 5.14908 31.4797 7.11881C31.9172 8.83365 31.9404 10.5172 31.9626 12.1452C31.9788 13.3134 31.9956 14.6977 31.9988 16.1054V16.1112C31.9956 17.519 31.9788 18.9032 31.9626 20.0714C31.9404 21.6994 31.9175 23.3827 31.4797 25.0978C30.977 27.0675 29.9873 28.6659 28.5373 29.8481C27.0349 31.0731 25.1487 31.7873 23.0823 31.913C20.9238 32.0443 18.7065 32.1083 16.3149 32.1083ZM15.9963 29.6078C18.4639 29.6137 20.7295 29.5514 22.9304 29.4176C24.4929 29.3227 25.8477 28.8156 26.9575 27.9106C27.9834 27.0739 28.6899 25.9196 29.0574 24.4796C29.4216 23.0522 29.4426 21.5194 29.4629 20.0373C29.4788 18.8769 29.4954 17.5023 29.4988 16.1083C29.4954 14.714 29.4788 13.3398 29.4629 12.1794C29.4426 10.6972 29.4216 9.16446 29.0574 7.73673C28.6899 6.29678 27.9834 5.14249 26.9575 4.30582C25.8477 3.40103 24.4929 2.89395 22.9304 2.79898C20.7295 2.66495 18.4639 2.60318 16.0022 2.60855C13.5352 2.60269 11.2693 2.66495 9.06836 2.79898C7.50586 2.89395 6.15112 3.40103 5.04126 4.30582C4.01538 5.14249 3.30884 6.29678 2.94141 7.73673C2.57715 9.16446 2.55615 10.6969 2.53589 12.1794C2.52002 13.3407 2.50342 14.716 2.5 16.1112C2.50342 17.5004 2.52002 18.8759 2.53589 20.0373C2.55615 21.5194 2.57715 23.0522 2.94141 24.4796C3.30884 25.9196 4.01538 27.0739 5.04126 27.9106C6.15112 28.8153 7.50586 29.3224 9.06836 29.4174C11.2693 29.5514 13.5356 29.6139 15.9963 29.6078ZM15.9368 23.9208C11.6291 23.9208 8.12427 20.4162 8.12427 16.1083C8.12427 11.8004 11.6291 8.29581 15.9368 8.29581C20.2446 8.29581 23.7493 11.8004 23.7493 16.1083C23.7493 20.4162 20.2446 23.9208 15.9368 23.9208ZM15.9368 10.7958C13.0076 10.7958 10.6243 13.1791 10.6243 16.1083C10.6243 19.0375 13.0076 21.4208 15.9368 21.4208C18.8662 21.4208 21.2493 19.0375 21.2493 16.1083C21.2493 13.1791 18.8662 10.7958 15.9368 10.7958ZM24.6243 5.79581C23.5889 5.79581 22.7493 6.63516 22.7493 7.67081C22.7493 8.70645 23.5889 9.54581 24.6243 9.54581C25.6599 9.54581 26.4993 8.70645 26.4993 7.67081C26.4993 6.63516 25.6599 5.79581 24.6243 5.79581Z" fill="white"/>
</g>
<defs>
<clipPath id="clip0_38_1156">
<rect width="32" height="32" fill="white" transform="translate(0 0.108398)"/>
</clipPath>
</defs>
</svg>
