<svg width="40" height="41" viewBox="0 0 40 41" fill="none" xmlns="http://www.w3.org/2000/svg">
<path d="M36.0002 20.5889C36.2402 11.4289 28.8802 3.98885 19.7602 4.10885C11.0002 4.22885 3.92018 11.4689 4.00018 20.2289C4.04018 26.5089 7.72018 31.9089 13.0002 34.5089C13.3202 34.6689 13.6802 34.4289 13.6402 34.0689C13.6002 33.0289 13.6402 31.9489 13.8402 31.0689C14.0402 30.1889 14.8402 26.8289 15.3602 24.6289C15.6002 23.5489 15.6402 22.4289 15.4402 21.3489C15.3602 20.9889 15.3202 20.5889 15.3202 20.1089C15.3202 17.7489 16.6802 15.9889 18.4002 15.9889C19.8402 15.9889 20.5602 17.0689 20.5602 18.3889C20.5602 19.8289 19.6402 22.0289 19.1602 24.0689C18.7602 25.7489 20.0002 27.1489 21.6802 27.1489C24.7202 27.1489 27.0402 23.9489 27.0402 19.3489C27.0402 15.2689 24.1202 12.4289 19.9202 12.4289C15.0802 12.4289 12.2402 16.0689 12.2402 19.8289C12.2402 21.3089 12.8002 22.8689 13.5202 23.7089C13.6402 23.8689 13.6802 24.0289 13.6402 24.1889C13.5202 24.7089 13.2402 25.8689 13.1602 26.1089C13.0802 26.4289 12.9202 26.4689 12.6002 26.3489C10.4802 25.3089 9.12018 22.1889 9.12018 19.7089C9.12018 14.3489 13.0002 9.42885 20.3602 9.42885C26.2402 9.42885 30.8402 13.6289 30.8402 19.2689C30.8402 25.1489 27.1602 29.8289 22.0002 29.8289C20.6402 29.8289 19.3602 29.2689 18.6002 28.5089C18.3602 28.2689 17.9602 28.3889 17.8802 28.7089C17.6002 29.7089 17.2002 31.3889 17.0402 31.9089C16.8002 32.8689 16.2802 33.9888 15.7202 34.9888C15.5602 35.2288 15.7202 35.5889 16.0002 35.6289C17.3202 35.9489 18.6802 36.1488 20.0802 36.1089C28.5602 36.0289 35.7602 28.9889 36.0002 20.5889Z" fill="white"/>
</svg>
