<svg width="32" height="33" viewBox="0 0 32 33" fill="none" xmlns="http://www.w3.org/2000/svg">
<path d="M28.768 8.17201C27.808 8.58801 26.816 8.87601 25.76 9.00401C26.848 8.36401 27.68 7.34001 28.064 6.09201C27.04 6.70001 25.92 7.11601 24.736 7.37201C23.776 6.34801 22.4 5.70801 20.896 5.70801C17.984 5.70801 15.648 8.07601 15.648 10.956C15.648 11.372 15.68 11.756 15.776 12.14C11.424 11.948 7.58397 9.83601 4.99197 6.66801C3.13597 9.99601 5.21597 12.748 6.59197 13.676C5.75997 13.676 4.92797 13.42 4.22397 13.036C4.22397 15.628 6.04797 17.772 8.41597 18.252C7.90397 18.412 6.75197 18.508 6.04797 18.348C6.71997 20.428 8.67197 21.964 10.944 21.996C9.15197 23.404 6.52797 24.524 3.16797 24.172C5.50397 25.676 8.25597 26.54 11.232 26.54C20.896 26.54 26.144 18.54 26.144 11.628C26.144 11.404 26.144 11.18 26.112 10.956C27.2 10.156 28.096 9.22801 28.768 8.17201Z" fill="white"/>
</svg>
